# xmcd
#
# Track frame offsets: 
#        150
#        25695
#        47985
#        65960
#        85900
#        112275
#        133400
#        161145
#        191225
#        215910
#
# Disc length: 3240 seconds
#
# Revision: 3
# Processed by: cddbd v1.5.2PL0 Copyright (c) Steve Scherf et al.
# Submitted via: ExactAudioCopy v1.0b3
#
DISCID=a80ca60a
DTITLE=Si Phu, Vu Khanh, Tuan Ngoc - Ao Lua Ha Dong
DYEAR=1992
DGENRE=Vietnamese
TTITLE0=Vu Khanh - Ao lua Ha Dong
TTITLE1=Tuan Ngoc - Khuc thuy du
TTITLE2=Si Phu - Sao ma quen duoc
TTITLE3=Vu Khanh - Nhu giot sau roi
TTITLE4=Si Phu - Chiec la cuoi cung
TTITLE5=Si Phu - Chuyen tinh buon
TTITLE6=Tuan Ngoc - Mat le cho nang
TTITLE7=Si Phu - Dua em tim dong hoa vang
TTITLE8=Vu Khanh - Ben cau bien gioi
TTITLE9=Tuan Ngoc - Kiep nao co yeu nhau
EXTD=
EXTT0=
EXTT1=
EXTT2=
EXTT3=
EXTT4=
EXTT5=
EXTT6=
EXTT7=
EXTT8=
EXTT9=
PLAYORDER=
